<svg width="27" height="26" viewBox="0 0 27 26" fill="none" xmlns="http://www.w3.org/2000/svg">
<path d="M17.3414 18.478L19.5812 16.2383C19.8829 15.9403 20.2645 15.7364 20.6799 15.6512C21.0952 15.566 21.5263 15.6032 21.9209 15.7583L24.6506 16.8482C25.0494 17.0101 25.3913 17.2863 25.6333 17.6422C25.8753 17.9981 26.0065 18.4176 26.0105 18.848V23.8474C26.0082 24.1402 25.9466 24.4294 25.8296 24.6978C25.7125 24.9661 25.5424 25.208 25.3294 25.4088C25.1164 25.6097 24.8649 25.7654 24.5902 25.8665C24.3155 25.9676 24.0231 26.0121 23.7307 25.9972C4.60282 24.8073 0.743236 8.6091 0.013316 2.40978C-0.0205674 2.10535 0.010391 1.79719 0.104154 1.50559C0.197918 1.21398 0.352361 0.94553 0.557324 0.717899C0.762287 0.490267 1.01312 0.308612 1.29333 0.184885C1.57354 0.061157 1.87678 -0.00183896 2.18308 4.08646e-05H7.01255C7.44352 0.00131651 7.86424 0.131494 8.22062 0.373829C8.57699 0.616165 8.85272 0.959576 9.01234 1.35989L10.1022 4.0896C10.2625 4.48262 10.3033 4.91415 10.2198 5.33027C10.1362 5.7464 9.93184 6.12867 9.63227 6.42934L7.39251 8.6691C7.39251 8.6691 8.68237 17.3981 17.3414 18.478Z" fill="#004185"/>
</svg>
