<svg width="26" height="26" viewBox="0 0 26 26" fill="none" xmlns="http://www.w3.org/2000/svg">
<path d="M5.2 13C5.19813 14.8414 5.84778 16.6241 7.03396 18.0325C8.22014 19.4409 9.86636 20.3843 11.6812 20.6956C13.4961 21.007 15.3626 20.6662 16.9504 19.7336C18.5381 18.801 19.7448 17.3367 20.3567 15.6H13V10.4H25.7465V15.6H25.74C24.5349 21.5332 19.2894 26 13 26C5.8201 26 0 20.1799 0 13C0 5.8201 5.8201 3.29466e-06 13 3.29466e-06C15.1249 -0.0015101 17.2177 0.518377 19.0948 1.51407C20.972 2.50976 22.5761 3.95083 23.7666 5.7109L19.5052 8.6944C18.5801 7.29613 17.2291 6.23315 15.6525 5.66301C14.0758 5.09288 12.3574 5.04593 10.752 5.52914C9.14652 6.01235 7.73951 6.99999 6.73947 8.34566C5.73943 9.69134 5.1996 11.3234 5.2 13Z" fill="#004185"/>
</svg>
