<svg width="16" height="12" viewBox="0 0 16 12" fill="none" xmlns="http://www.w3.org/2000/svg">
<path d="M10.8571 11.5556H1.14286C0.839753 11.5556 0.549062 11.4338 0.334735 11.2171C0.120408 11.0004 0 10.7065 0 10.4V1.15556C0 0.849083 0.120408 0.555163 0.334735 0.338454C0.549062 0.121746 0.839753 0 1.14286 0H10.8571C11.1602 0 11.4509 0.121746 11.6653 0.338454C11.8796 0.555163 12 0.849083 12 1.15556V3.50133L15.0971 1.26533C15.1824 1.20393 15.2828 1.16741 15.3872 1.15974C15.4916 1.15207 15.5961 1.17355 15.6893 1.22185C15.7824 1.27014 15.8607 1.34338 15.9155 1.43359C15.9703 1.52379 15.9995 1.62748 16 1.73333V9.82222C15.9995 9.92808 15.9703 10.0318 15.9155 10.122C15.8607 10.2122 15.7824 10.2854 15.6893 10.3337C15.5961 10.382 15.4916 10.4035 15.3872 10.3958C15.2828 10.3881 15.1824 10.3516 15.0971 10.2902L12 8.05422V10.4C12 10.7065 11.8796 11.0004 11.6653 11.2171C11.4509 11.4338 11.1602 11.5556 10.8571 11.5556Z" fill="#004185"/>
</svg>
