<svg width="20" height="21" viewBox="0 0 20 21" fill="none" xmlns="http://www.w3.org/2000/svg">
<path fill-rule="evenodd" clip-rule="evenodd" d="M10 2C8.58968 1.99969 7.20432 2.37221 5.98435 3.07982C4.76438 3.78743 3.75316 4.80498 3.05316 6.02934C2.35317 7.25369 1.98929 8.64134 1.99839 10.0516C2.00749 11.462 2.38927 12.8448 3.10501 14.06L3.67401 14.778L2.97701 17.137L5.29701 16.489L5.67601 16.732C6.72195 17.4035 7.90997 17.8221 9.14584 17.9545C10.3817 18.0869 11.6314 17.9295 12.7959 17.4948C13.9603 17.0601 15.0075 16.3601 15.8543 15.4502C16.7011 14.5403 17.3242 13.4457 17.6742 12.253C18.0243 11.0604 18.0916 9.80261 17.8709 8.57942C17.6502 7.35623 17.1475 6.20129 16.4027 5.20621C15.6579 4.21114 14.6915 3.40329 13.5801 2.84675C12.4687 2.29022 11.243 2.0003 10 2ZM9.23709e-06 10C9.23709e-06 4.477 4.47701 0 10 0C15.523 0 20 4.477 20 10C20 15.523 15.523 20 10 20C8.23831 20.0025 6.50746 19.5377 4.98401 18.653L0.0360093 20.035L1.46201 15.206L1.45601 15.199L1.42301 15.144C0.489541 13.5907 -0.00245843 11.8122 9.23709e-06 10Z" fill="#004185"/>
<path d="M14.735 11.492C14.697 11.474 13.238 10.756 12.979 10.662C12.8709 10.6173 12.7558 10.5919 12.639 10.587C12.443 10.587 12.277 10.685 12.149 10.878C12.003 11.095 11.562 11.61 11.426 11.764C11.408 11.784 11.384 11.809 11.369 11.809C11.356 11.809 11.13 11.716 11.062 11.686C9.498 11.006 8.311 9.373 8.148 9.097C8.125 9.057 8.124 9.04 8.124 9.04C8.129 9.019 8.182 8.966 8.209 8.939C8.289 8.86 8.375 8.757 8.458 8.656L8.575 8.516C8.696 8.376 8.75 8.266 8.812 8.141L8.845 8.075C8.89448 7.97488 8.91853 7.86412 8.91505 7.7525C8.91156 7.64087 8.88063 7.53183 8.825 7.435C8.791 7.366 8.175 5.88 8.11 5.724C7.952 5.347 7.744 5.172 7.455 5.172C7.428 5.172 7.455 5.172 7.343 5.177C7.206 5.182 6.46 5.281 6.13 5.488C5.78 5.708 5.19 6.412 5.19 7.648C5.19 8.76 5.895 9.81 6.198 10.209L6.239 10.269C7.4 11.964 8.847 13.22 10.313 13.806C11.725 14.37 12.394 14.436 12.774 14.436C12.934 14.436 13.062 14.423 13.174 14.412L13.246 14.405C13.734 14.362 14.806 13.806 15.05 13.129C15.242 12.595 15.293 12.012 15.165 11.8C15.077 11.656 14.926 11.584 14.735 11.492Z" fill="#004185"/>
</svg>
