<svg width="20" height="16" viewBox="0 0 20 16" fill="none" xmlns="http://www.w3.org/2000/svg">
<path d="M18.6667 14.6667H18V8C18 7.64638 17.8595 7.30724 17.6095 7.05719C17.3594 6.80714 17.0203 6.66667 16.6667 6.66667H12V1.33333C12 0.979711 11.8595 0.640573 11.6095 0.390524C11.3594 0.140476 11.0203 0 10.6667 0H2.66667C2.31305 0 1.97391 0.140476 1.72386 0.390524C1.47381 0.640573 1.33333 0.979711 1.33333 1.33333V14.6667H0.666667C0.489856 14.6667 0.320286 14.7369 0.195262 14.8619C0.0702379 14.987 0 15.1565 0 15.3333C0 15.5101 0.0702379 15.6797 0.195262 15.8047C0.320286 15.9298 0.489856 16 0.666667 16H18.6667C18.8435 16 19.0131 15.9298 19.1381 15.8047C19.2631 15.6797 19.3333 15.5101 19.3333 15.3333C19.3333 15.1565 19.2631 14.987 19.1381 14.8619C19.0131 14.7369 18.8435 14.6667 18.6667 14.6667ZM8.66667 14.6667H4.66667V10.6667H8.66667V14.6667ZM8.66667 6H7.33334V7.33333C7.33334 7.51014 7.2631 7.67971 7.13807 7.80474C7.01305 7.92976 6.84348 8 6.66667 8C6.48986 8 6.32029 7.92976 6.19526 7.80474C6.07024 7.67971 6 7.51014 6 7.33333V6H4.66667C4.48986 6 4.32029 5.92976 4.19526 5.80474C4.07024 5.67971 4 5.51014 4 5.33333C4 5.15652 4.07024 4.98695 4.19526 4.86193C4.32029 4.7369 4.48986 4.66667 4.66667 4.66667H6V3.33333C6 3.15652 6.07024 2.98695 6.19526 2.86193C6.32029 2.7369 6.48986 2.66667 6.66667 2.66667C6.84348 2.66667 7.01305 2.7369 7.13807 2.86193C7.2631 2.98695 7.33334 3.15652 7.33334 3.33333V4.66667H8.66667C8.84348 4.66667 9.01305 4.7369 9.13807 4.86193C9.2631 4.98695 9.33334 5.15652 9.33334 5.33333C9.33334 5.51014 9.2631 5.67971 9.13807 5.80474C9.01305 5.92976 8.84348 6 8.66667 6ZM16.6667 14.6667H12V8H16.6667V14.6667Z" fill="#004185"/>
</svg>
