<svg width="16" height="16" viewBox="0 0 16 16" fill="none" xmlns="http://www.w3.org/2000/svg">
<path fill-rule="evenodd" clip-rule="evenodd" d="M7.36072 0.260258C7.52741 0.0936147 7.75347 0 7.98917 0C8.22488 0 8.45093 0.0936147 8.61762 0.260258L13.951 5.59365L15.7288 7.37145C15.8907 7.5391 15.9803 7.76364 15.9783 7.99671C15.9763 8.22977 15.8828 8.45272 15.718 8.61753C15.5532 8.78234 15.3302 8.87582 15.0972 8.87785C14.8641 8.87987 14.6396 8.79028 14.4719 8.62836L14.2115 8.36791V14.2222C14.2115 14.6937 14.0242 15.1459 13.6908 15.4793C13.3574 15.8127 12.9052 16 12.4337 16H9.76697C9.53122 16 9.30512 15.9063 9.13842 15.7396C8.97172 15.5729 8.87807 15.3469 8.87807 15.1111V12.4444H7.10027V15.1111C7.10027 15.3469 7.00662 15.5729 6.83992 15.7396C6.67322 15.9063 6.44712 16 6.21137 16H3.54467C3.07317 16 2.62098 15.8127 2.28758 15.4793C1.95418 15.1459 1.76688 14.6937 1.76688 14.2222V8.36791L1.50643 8.62836C1.33878 8.79028 1.11424 8.87987 0.881175 8.87785C0.648109 8.87582 0.425162 8.78234 0.260353 8.61753C0.0955435 8.45272 0.00205889 8.22977 3.36027e-05 7.99671C-0.00199168 7.76364 0.0876043 7.5391 0.249525 7.37145L2.02732 5.59365L7.36072 0.260258Z" fill="#004185"/>
</svg>
