<svg width="21" height="26" viewBox="0 0 21 26" fill="none" xmlns="http://www.w3.org/2000/svg">
<path d="M10.2143 0C7.50628 0.00319472 4.91009 1.08037 2.99523 2.99522C1.08037 4.91008 0.00320113 7.50627 6.41103e-06 10.2143C-0.0024834 12.4272 0.720306 14.5799 2.05772 16.3429C2.05772 16.3429 2.33629 16.7096 2.38179 16.7626L10.2143 26L18.0505 16.7579C18.0914 16.7087 18.3709 16.3429 18.3709 16.3429L18.3718 16.3401C19.7083 14.5777 20.4307 12.4261 20.4286 10.2143C20.4254 7.50627 19.3482 4.91008 17.4334 2.99522C15.5185 1.08037 12.9223 0.00319472 10.2143 0ZM10.2143 13.9286C9.47968 13.9286 8.76156 13.7107 8.15075 13.3026C7.53993 12.8945 7.06386 12.3144 6.78274 11.6357C6.50161 10.957 6.42806 10.2102 6.57137 9.48966C6.71469 8.76916 7.06844 8.10734 7.58789 7.58789C8.10735 7.06844 8.76917 6.71468 9.48967 6.57137C10.2102 6.42805 10.957 6.50161 11.6357 6.78273C12.3144 7.06386 12.8945 7.53993 13.3026 8.15074C13.7107 8.76155 13.9286 9.47967 13.9286 10.2143C13.9273 11.199 13.5356 12.143 12.8393 12.8393C12.143 13.5356 11.199 13.9273 10.2143 13.9286Z" fill="#004185"/>
</svg>
