<svg width="26" height="26" viewBox="0 0 26 26" fill="none" xmlns="http://www.w3.org/2000/svg">
<path d="M15.3898 0.23679L14.6128 0.127739C12.2776 -0.209421 9.89477 0.124134 7.74196 1.08952C5.58915 2.0549 3.75511 3.61234 2.45364 5.58027C1.06891 7.46137 0.243435 9.69521 0.0722177 12.0247C-0.0989999 14.3543 0.390995 16.6848 1.48581 18.7481C1.59786 18.9549 1.66762 19.182 1.69102 19.416C1.71442 19.65 1.69101 19.8864 1.62213 20.1113C1.06324 22.0333 0.545253 23.9689 0 26L0.681566 25.7955C2.5218 25.3048 4.36202 24.8141 6.20225 24.3642C6.59067 24.2835 6.99439 24.3215 7.36092 24.4733C9.01194 25.2791 10.8162 25.7224 12.6527 25.7734C14.4891 25.8245 16.3152 25.4822 18.0085 24.7694C19.7017 24.0566 21.223 22.9899 22.47 21.6409C23.7171 20.2918 24.6612 18.6916 25.2389 16.9476C25.8166 15.2037 26.0146 13.3563 25.8196 11.5295C25.6246 9.70275 25.0411 7.93882 24.1083 6.3561C23.1755 4.77339 21.9149 3.40852 20.4112 2.35309C18.9074 1.29765 17.1953 0.57608 15.3898 0.23679ZM18.8249 18.1211C18.3294 18.5646 17.7253 18.869 17.074 19.0031C16.4227 19.1372 15.7475 19.0962 15.1171 18.8844C12.2608 18.0801 9.78268 16.288 8.12427 13.8272C7.4908 12.9569 6.98156 12.0026 6.61119 10.9919C6.41061 10.4055 6.37444 9.77527 6.50661 9.16972C6.63877 8.56417 6.93422 8.00636 7.36092 7.55681C7.56864 7.2917 7.85139 7.0953 8.17233 6.99318C8.49327 6.89106 8.83753 6.88797 9.16025 6.9843C9.43288 7.05245 9.62372 7.44776 9.86908 7.74765C10.0681 8.31062 10.3012 8.86133 10.5643 9.39704C10.7639 9.67036 10.8472 10.0115 10.7962 10.3461C10.7451 10.6807 10.5637 10.9814 10.2917 11.1827C9.67824 11.728 9.77366 12.1778 10.2099 12.7912C11.1742 14.1805 12.5048 15.2752 14.0539 15.9537C14.4901 16.1445 14.8173 16.1854 15.1035 15.7356C15.2262 15.5584 15.3898 15.4085 15.5261 15.2449C16.3167 14.2498 16.0713 14.2634 17.3254 14.8087C17.7248 14.9763 18.1119 15.1726 18.4841 15.3948C18.8521 15.6129 19.411 15.8447 19.4928 16.1718C19.5715 16.5267 19.5508 16.8965 19.4329 17.2404C19.3151 17.5843 19.1047 17.889 18.8249 18.1211Z" fill="#004185"/>
</svg>
